<?xml version="1.0" encoding="UTF-8"?>
<!-- Created with Inkscape (http://www.inkscape.org/) -->
<svg width="2460" height="2460" version="1.1" viewBox="0 0 2460 2460" xmlns="http://www.w3.org/2000/svg">
 <g>
  <path d="m1952.2 1700.6 72.702 42.081 71.124 125.69 145.91-84.243v-166.74l71.617-41.348-74.628-43.086-69.734 43.071v167.2l-79.483 45.89 6.3149-87.506-72.919-42.1z" fill="#0538a9"/>
  <path d="m2242 2034.7-72.152-41.657v-120.88l-144.92 120.44-72.77-42.014v-250.05l72.702 42.081 59.695 143.8 157.34-102.35-72.744-40.897v-167.2l72.744 41.364 55.618 353.44z" fill="#0065b1"/>
  <path d="m2024.9 1742.6 71.124-41.064v166.76l145.91-84.243v-166.74l71.617-41.348v417.43l-71.514 41.288v-167.42l-217.07 125.33z" fill="#00aef0"/>
  <path d="m1663.2 2368.1-72.318-42.053v-415.99l72.318 40.246 216.8 126.13v83.371z" fill="#026ec3"/>
  <path d="m1590.9 1910.1 289.03-166.87 71.267 40.854-73.5 125.26 74.33 42.942-165 153.56 106.43 61.45-194.85 132.25-35.397-349.21z" fill="#0721a6"/>
  <path d="m1951.2 1784.1-287.98 166.27v417.8l288.81-166.81v-249.05l-216.28 124.87v-85.328l215.45-124.39zm-71.182 292.39v83.371l-143.51 83.256v-83.77z" fill="#00aef0"/>
  <path d="m1410.3 1387.1-180.89-103.2 903.04-521.89 180.37 104.02-246.15 764.44-658.39 155.36z" fill="#9e0b0f"/>
  <path d="m2132.7 1387.2-221.17-116.53-501.27 116.4-0.207 1043.4-180.69-104.39v-1042.2l180.89 103.2 748.72-303.25z" fill="#7a0026"/>
  <path d="m2312.8 866.03-902.51 521.06-0.207 1043.4 180.81-104.39v-415.99l721.91-416.8zm-180.08 313.17v208.03l-541.48 313.14v-208.54z" fill="#e94527"/>
  <path d="m687.03 2221.9 182.31-105.26 179.56 313.68 180.47-104.2v-1042.2l-903.13-104.7v834.05l228.42-131.88z" fill="#005826"/>
  <path d="m145.17 865.87 903.74 521.77v1042.6l-179.83-103.83v-834.19l-182.04-105.1v834.7l-179.14-103.42v-834.36l-181.65-104.88v834.05l-179.9-103.86z" fill="#079331"/>
  <path d="m1048.9 1387.6 180.47-103.75-902.92-521.53-181.29 103.51 903.74 521.77" fill="#39b54a"/>
  <path d="m1229.4 1283.9 542.63-313.29-0.342-209.02 180.74 104.35 180.01-103.93-0.8135-209.11-901.37-313.01-181.09 104.55 180.23 939.45" fill="#ffc001"/>
  <path d="m326.76 552.85-0.30433 209.52 902.92 521.53 0.612-209.57 315.12-319.31-311.72-302.75 719.01 413.67-0.4081-209.34-721.76-416.71v226.34l-542.76-121.35v242.89z" fill="#cd6928"/>
  <path d="m326.76 552.85 903.23 521.48 541.68-312.74-722.52-417.15 181.09-104.55 721.76 416.71 179.61-103.7-902.21-520.89-541.92 312.88 721.77 416.71-180 103.92-721.77-416.71z" fill="#f4ee51"/>
 </g>
</svg>
