<?xml version="1.0" standalone="no"?>
<!DOCTYPE svg PUBLIC "-//W3C//DTD SVG 20010904//EN"
 "http://www.w3.org/TR/2001/REC-SVG-20010904/DTD/svg10.dtd">
<svg version="1.0" xmlns="http://www.w3.org/2000/svg"
 width="64.000000pt" height="64.000000pt" viewBox="0 0 64.000000 64.000000"
 preserveAspectRatio="xMidYMid meet">
<metadata>
Created by potrace 1.16, written by Peter Selinger 2001-2019
</metadata>
<g transform="translate(0.000000,64.000000) scale(0.100000,-0.100000)"
fill="#000000" stroke="none">
<path d="M30 590 c-7 -17 -10 -47 -6 -72 7 -46 7 -52 3 -113 l-2 -40 53 -3 52
-3 0 -90 0 -89 120 0 120 0 0 -75 0 -75 105 0 105 0 0 125 0 125 -85 0 -85 0
0 55 0 55 95 0 95 0 0 100 0 100 -80 0 -80 0 -1 -27 -1 -28 -7 25 c-6 23 -12
25 -68 28 -78 4 -93 -13 -93 -106 0 -70 -19 -83 -31 -21 -4 18 -17 42 -29 51
l-22 18 31 0 c30 0 31 1 31 45 l0 45 -104 0 -104 0 -12 -30z m160 11 c0 -11
-120 -19 -126 -9 -7 11 18 16 74 17 28 1 52 -3 52 -8z m210 -41 c0 -5 -15 -10
-32 -10 -18 0 -39 -4 -47 -9 -19 -12 17 -31 58 -31 23 0 31 -5 31 -17 0 -13
-3 -14 -12 -5 -7 7 -29 12 -49 12 -31 0 -38 4 -43 25 -4 14 -4 30 -1 35 8 13
95 13 95 0z m86 -12 c-3 -13 -6 -32 -6 -42 0 -28 -6 -16 -14 27 -6 31 -4 37
10 37 12 0 15 -6 10 -22z m88 -5 c-9 -38 -10 -38 -22 -4 -10 28 -9 31 9 31 16
0 18 -5 13 -27z m-401 -34 c38 -10 42 -15 31 -43 -8 -20 -44 -21 -44 -1 0 10
-10 15 -33 15 -18 0 -42 7 -53 15 -16 13 -17 16 -4 25 15 10 28 9 103 -11z
m267 11 c0 -5 -2 -10 -4 -10 -3 0 -8 5 -11 10 -3 6 -1 10 4 10 6 0 11 -4 11
-10z m120 -42 c0 -4 -16 -8 -35 -8 -19 0 -35 4 -35 8 0 4 16 8 35 8 19 0 35
-4 35 -8z m-174 -41 c4 -4 -7 -7 -25 -7 -18 0 -30 4 -27 8 6 10 42 9 52 -1z
m-236 -17 c0 -13 -87 -13 -95 0 -4 6 13 10 44 10 28 0 51 -4 51 -10z m80 -20
c0 -5 -11 -10 -25 -10 -14 0 -25 5 -25 10 0 6 11 10 25 10 14 0 25 -4 25 -10z
m76 -62 c-5 -23 -18 -48 -25 -48 -4 0 -12 14 -18 30 -11 29 -10 30 17 30 17 0
27 -5 26 -12z m-80 -40 c-1 -26 -6 -34 -23 -36 -20 -3 -23 1 -23 32 0 31 3 36
24 36 20 0 23 -5 22 -32z m158 16 c7 -17 -10 -54 -24 -54 -15 0 -32 38 -20 45
6 4 8 11 5 16 -4 5 3 9 13 9 11 0 23 -7 26 -16z m146 -54 c10 -7 -7 -10 -57
-10 -39 0 -75 5 -78 10 -8 13 115 13 135 0z m-55 -93 c17 0 41 4 54 8 21 7 23
6 16 -16 -10 -32 -5 -30 -73 -32 -65 -2 -87 9 -76 37 5 13 13 16 28 10 11 -4
35 -7 51 -7z"/>
</g>
</svg>
